<svg xmlns="http://www.w3.org/2000/svg" xmlns:xlink="http://www.w3.org/1999/xlink" width="55" height="501" viewBox="0 0 55 501">
  <defs>
    <linearGradient id="linear-gradient" x1="0.5" x2="0.5" y2="1" gradientUnits="objectBoundingBox">
      <stop offset="0" stop-color="#854fee"/>
      <stop offset="1" stop-color="#4458dc"/>
    </linearGradient>
  </defs>
  <g id="Rectangle_1" data-name="Rectangle 1" transform="translate(15)" stroke="#854fee" stroke-linecap="square" stroke-linejoin="round" stroke-width="20" fill="url(#linear-gradient)">
    <rect width="25" height="501" stroke="none"/>
    <rect x="10" y="10" width="5" height="481" fill="none"/>
  </g>
  <circle id="Ellipse_1" data-name="Ellipse 1" cx="27.5" cy="27.5" r="27.5" transform="translate(0 69)" fill="#fff"/>
  <circle id="Ellipse_1-2" data-name="Ellipse 1" cx="27.5" cy="27.5" r="27.5" transform="translate(0 223)" fill="#fff"/>
  <circle id="Ellipse_1-3" data-name="Ellipse 1" cx="27.5" cy="27.5" r="27.5" transform="translate(0 383)" fill="#fff"/>
  <path id="Icon_awesome-road" data-name="Icon awesome-road" d="M28.752,32.539,21.74,6.046C21.491,5.1,20.948,4.5,20.35,4.5h-4.9l.123,1.917c.025.391-.161.732-.4.732H13.715c-.238,0-.424-.341-.4-.732L13.439,4.5h-4.9c-.6,0-1.142.6-1.391,1.546L.14,32.539c-.464,1.754.276,3.753,1.391,3.753h9.874l.517-8.087c.043-.674.387-1.186.8-1.186h3.451c.411,0,.755.512.8,1.186l.517,8.087h9.874C28.476,36.292,29.217,34.293,28.752,32.539ZM13.062,10.391c.022-.337.194-.593.4-.593h1.971c.205,0,.378.256.4.593L16.062,14c.038.587-.241,1.1-.6,1.1H13.43c-.358,0-.636-.511-.6-1.1l.23-3.608ZM15.833,24.37H13.06c-.477,0-.848-.681-.8-1.464l.254-3.974c.043-.674.387-1.186.8-1.186h2.265c.411,0,.755.512.8,1.186l.254,3.974c.05.782-.322,1.464-.8,1.464Z" transform="translate(13.107 76)"/>
  <path id="Icon_awesome-city" data-name="Icon awesome-city" d="M30.078,9.375H23.438v-8.2A1.172,1.172,0,0,0,22.266,0H15.234a1.172,1.172,0,0,0-1.172,1.172V4.688H10.938V.781A.781.781,0,0,0,10.156,0H9.375a.781.781,0,0,0-.781.781V4.688H5.469V.781A.781.781,0,0,0,4.688,0H3.906a.781.781,0,0,0-.781.781V4.688H1.172A1.172,1.172,0,0,0,0,5.859V23.438A1.563,1.563,0,0,0,1.563,25H29.688a1.563,1.563,0,0,0,1.563-1.562V10.547A1.172,1.172,0,0,0,30.078,9.375ZM6.25,19.727a.586.586,0,0,1-.586.586H3.711a.586.586,0,0,1-.586-.586V17.773a.586.586,0,0,1,.586-.586H5.664a.586.586,0,0,1,.586.586Zm0-4.687a.586.586,0,0,1-.586.586H3.711a.586.586,0,0,1-.586-.586V13.086a.586.586,0,0,1,.586-.586H5.664a.586.586,0,0,1,.586.586Zm0-4.687a.586.586,0,0,1-.586.586H3.711a.586.586,0,0,1-.586-.586V8.4a.586.586,0,0,1,.586-.586H5.664A.586.586,0,0,1,6.25,8.4Zm6.25,9.375a.586.586,0,0,1-.586.586H9.961a.586.586,0,0,1-.586-.586V17.773a.586.586,0,0,1,.586-.586h1.953a.586.586,0,0,1,.586.586Zm0-4.687a.586.586,0,0,1-.586.586H9.961a.586.586,0,0,1-.586-.586V13.086a.586.586,0,0,1,.586-.586h1.953a.586.586,0,0,1,.586.586Zm0-4.687a.586.586,0,0,1-.586.586H9.961a.586.586,0,0,1-.586-.586V8.4a.586.586,0,0,1,.586-.586h1.953A.586.586,0,0,1,12.5,8.4Zm7.813,4.688a.586.586,0,0,1-.586.586H17.773a.586.586,0,0,1-.586-.586V13.086a.586.586,0,0,1,.586-.586h1.953a.586.586,0,0,1,.586.586Zm0-4.687a.586.586,0,0,1-.586.586H17.773a.586.586,0,0,1-.586-.586V8.4a.586.586,0,0,1,.586-.586h1.953a.586.586,0,0,1,.586.586Zm0-4.687a.586.586,0,0,1-.586.586H17.773a.586.586,0,0,1-.586-.586V3.711a.586.586,0,0,1,.586-.586h1.953a.586.586,0,0,1,.586.586Zm7.813,14.063a.586.586,0,0,1-.586.586H25.586A.586.586,0,0,1,25,19.727V17.773a.586.586,0,0,1,.586-.586h1.953a.586.586,0,0,1,.586.586Zm0-4.687a.586.586,0,0,1-.586.586H25.586A.586.586,0,0,1,25,15.039V13.086a.586.586,0,0,1,.586-.586h1.953a.586.586,0,0,1,.586.586Z" transform="translate(12 238)"/>
  <path id="Icon_metro-earth" data-name="Icon metro-earth" d="M16.785,1.339a15,15,0,1,0,15,15,15,15,0,0,0-15-15Zm0,28.125A13.081,13.081,0,0,1,11.593,28.4l6.831-7.684a.938.938,0,0,0,.237-.623V17.276a.937.937,0,0,0-.937-.937c-3.31,0-6.8-3.441-6.837-3.475a.937.937,0,0,0-.663-.275H6.473a.938.938,0,0,0-.937.938v5.625a.937.937,0,0,0,.518.839l3.232,1.616v5.5a13.133,13.133,0,0,1-4.361-16.4H8.348a.938.938,0,0,0,.663-.275l3.75-3.75a.938.938,0,0,0,.275-.663V3.758a13.162,13.162,0,0,1,9.5.78c-.121.1-.24.21-.353.323a5.626,5.626,0,0,0,3.974,9.6q.139,0,.279-.007a22.015,22.015,0,0,1-.246,10.908.935.935,0,0,0-.025.153,13.084,13.084,0,0,1-9.379,3.945Z" transform="translate(11 394)"/>
</svg>
