<svg enable-background="new 0 0 140 140" height="512" viewBox="0 0 140 140" width="512" xmlns="http://www.w3.org/2000/svg"><circle cx="70" cy="70" fill="#fed35b" r="64"/><path d="m104.386467 33.1169167c-1.4299927 2.0600586-2.8699951 5.6699219-2.8699951 11.8701172 0 .25.0100098.5.0300293.75.0100098.0800781.0199585.159668.0299683.2397461.0100098.1699219.0300293.340332.0599976.5.0100098.1000977.0400391.2001953.0599976.3100586.0200195.1298828.0400391.2597656.0800171.3901367.0300293.1298828.0599976.25.0999756.3798828.0300293.1000977.0500488.199707.0800171.2998047.0499878.1401367.1099854.2802734.1600342.4204102.0299683.0698242.0499878.1499023.0799561.2197266.0700073.1601562.1400146.3100586.210022.4599609.0200195.0400391.039978.0800781.0599976.1201172h-.1199951c-.0499878.1796875-.1000366.3701172-.1500244.5498047l-11.4500126-11.4599611-.6499633-.6499023-.1699829-.1699219-.0100098.0097656c-.4700317-.449707-.9899902-.8398438-1.5400391-1.199707-7.0099487-4.5102539-15.5099487-6.9101562-24.6099892-6.2802734-19.8099976 1.3701172-35.8399658 17.3603516-37.25 37.1699257-.919981 12.840332 4.2000142 24.5205078 12.8099976 32.4804687l34.3599892 34.3598557c33.6297607-1.9111328 60.31353-29.778801 60.31353-63.8871994 0-4.9335938-.5769043-9.7299843-1.6337891-14.3432655l-25.0997238-25.0996094s-1.4400025.5102539-2.8800049 2.5600586z" opacity=".1"/><path d="m83.9125824 69.9999466c0-6.0302696 2.4766846-11.4790001 6.4676514-15.3896446 5.3880615-5.2792969 4.3395996-14.3676758-2.0020752-18.4526367-7.0106201-4.515625-15.5150146-6.9121094-24.6098633-6.2817383-19.8092041 1.3725586-35.8389893 17.3647461-37.2524414 37.1713829-1.6806641 23.5493164 16.9266357 43.1762695 40.1179199 43.1762695 7.9923096 0 15.4389648-2.3320312 21.6984863-6.3520508 6.3656006-4.0883789 7.4492188-13.1884766 2.0460205-18.4838867-3.9898681-3.9101562-6.4656982-9.3583984-6.4656982-15.3876953z" fill="#467082"/><circle cx="68.661" cy="41.137" fill="#dd584d" r="6.249"/><circle cx="68.661" cy="98.863" fill="#4da0dc" r="6.249"/><circle cx="48.252" cy="49.591" fill="#ededed" r="6.249"/><circle cx="39.798" cy="70" fill="#fb7833" r="6.249"/><circle cx="48.252" cy="90.409" fill="#fed35b" r="6.249"/><path d="m107.265007 30.5544167s-5.7488403 2.0292969-5.7488403 14.4291992c0 4.109375 2.5738525 7.4399414 5.7488403 7.4399414 3.1750488 0 5.7489014-3.3305664 5.7489014-7.4399414 0-6.581543-5.0744629-1.2084961-5.7489014-14.4291992z" fill="#dd584d"/><path d="m107.2650223 30.5543938s-5.7489243 2.0291595-5.7489243 14.4292336c0 4.0551834 2.507782 7.3460007 5.6249771 7.4318886.1062164-1.4248047-.2447739-3.5010262-1.5857925-6.5243759-3.8166046-8.6037332 1.7097397-15.3367463 1.7097397-15.3367463z" fill="#cd5248"/><path d="m112.1811142 49.0725327h-9.8321152c-.8786621 3.0443115-1.4086685 6.3068123-1.4086685 8.2050362 0 3.3809891 1.6789017 34.9220161 4.020546 48.0465584.1987915 1.1139603 1.1725998 1.9194336 2.3041458 1.9194336 1.131691 0 2.105423-.8054733 2.3041382-1.9194336 2.3417206-13.1245422 4.020546-44.6655693 4.020546-48.0465584-.0000001-1.898224-.5300065-5.1607247-1.4085923-8.2050362z" fill="#4288b9"/><g fill="#ededed"><path d="m104.1554031 99.9364243c.2580338 2.0033798.5269775 3.8267593.8054733 5.3877029.1987915 1.1139603 1.1725998 1.9194336 2.3041458 1.9194336 1.131691 0 2.105423-.8054733 2.3041382-1.9194336.2784958-1.5609436.5474396-3.3843231.8054733-5.3877029z"/><path d="m113.3237915 63.7401428c.1728058-3.3094711.2659149-5.6664963.2659149-6.462574 0-.3024292-.0181046-.6494064-.0442429-1.0145683h-12.5608902c-.0261383.3651619-.0442429.7121391-.0442429 1.0145683 0 .7960777.0931778 3.1531029.2659149 6.462574z"/></g></svg>